# xmcd CD database file
#
# Track frame offsets:
#	182
#	13935
#	28597
#
# Disc length: 573 seconds
#
# Revision: 0
# Processed by: cddbd v1.5.1PL0 Copyright (c) Steve Scherf et al.
# Submitted via: CDex 1.51
#
DISCID=1c023b03
DTITLE=Leningrad Cowboys - Jupiter Calling
DYEAR=1996
DGENRE=Country
TTITLE0=Jupiter Calling
TTITLE1=Galina
TTITLE2=Showtime
EXTD=YEAR: 1996
EXTT0=
EXTT1=
EXTT2=
PLAYORDER=
